# xmcd
#
# Track frame offsets: 
#        150
#        11980
#        47132
#        87027
#        95985
#        150627
#        185632
#        215750
#        237792
#        254512
#        273127
#        297545
#
# Disc length: 4282 seconds
#
# Revision: 3
# Processed by: cddbd v1.5.2PL0 Copyright (c) Steve Scherf et al.
# Submitted via: ExactAudioCopy v0.99pb5
#
DISCID=b310b80c
DTITLE=Solomon Burke - Live At The House Of Blues
DYEAR=1994
DGENRE=Soul
TTITLE0=Introduction - Everybody Needs Somebody To Love
TTITLE1=Medley - If You Need Me - Tonight's The Night - I Almost Lost M
TTITLE1=y Mind
TTITLE2=Cruel World
TTITLE3=Cry To Me
TTITLE4=Candy - Candy Rap
TTITLE5=Got To Get You Off My Mind
TTITLE6=No More Nights By Myself
TTITLE7=Ain't Nobody's Business
TTITLE8=Down In The Valley
TTITLE9=I Want A Little Girl
TTITLE10=Medley - Beautiful Brown Eyes - Just A Matter Of Time
TTITLE11=Good Rockin' Tonight
EXTD=
EXTT0=
EXTT1=
EXTT2=
EXTT3=
EXTT4=
EXTT5=
EXTT6=
EXTT7=
EXTT8=
EXTT9=
EXTT10=
EXTT11=
PLAYORDER=
